<?xml version="1.0" encoding="iso-8859-1"?>
<!-- Uploaded to: SVG Repo, www.svgrepo.com, Generator: SVG Repo Mixer Tools -->
<svg fill="#000000" height="800px" width="800px" version="1.1" id="Layer_1" xmlns="http://www.w3.org/2000/svg" xmlns:xlink="http://www.w3.org/1999/xlink" 
	 viewBox="0 0 512 512" xml:space="preserve">
<g>
	<g>
		<circle cx="315.318" cy="161.368" r="10.721"/>
	</g>
</g>
<g>
	<g>
		<circle cx="383.094" cy="161.368" r="10.721"/>
	</g>
</g>
<g>
	<g>
		<path d="M511.753,130.782c-4.181-79.365-87.192-115.516-162.547-115.516c-75.345,0-158.366,36.15-162.548,115.516
			c-0.161,3.12-0.247,6.293-0.247,9.413c0,21.838,4.063,43.44,11.932,64.206h-52.092c-20.487,0-39.238,7.558-53.646,20.005h-1.876
			c-40.878,0-74.145,33.191-74.305,74.037C6.84,302.11,0,311.405,0,322.265v15.449c0,14.066,11.439,25.494,25.494,25.494h3.291
			c14.055,0,25.494-11.428,25.494-25.494v-15.449c0-10.849-6.829-20.144-16.413-23.811c0.118-22.932,14.902-42.443,35.421-49.637
			c-5.886,11.321-9.241,24.175-9.241,37.801v55.415c-12.361,8.78-19.801,22.985-19.801,38.455v75.731
			c0,22.331,18.172,40.492,40.503,40.492l114.433,0.021c10.613,0,19.254-8.641,19.254-19.254c0-20.198-12.994-37.715-31.444-44.041
			v-19.308h0.364c25.397,0,48.425-13.787,60.508-35.679h5.961v77.768c0,22.331,18.172,40.492,40.503,40.492l113.361,0.021
			c10.614,0,19.254-8.641,19.254-19.254c0-20.841-13.454-38.509-32.548-44.437v-72.204c20.069-14.591,33.449-36.59,37.019-61.215
			c0.118-0.826,0.129-1.63,0.064-2.423c13.572-11.267,25.698-23.521,36.161-36.59C496.659,224.342,512,182.702,512,140.195
			C512,137.064,511.914,133.891,511.753,130.782z M32.838,337.713c0,2.241-1.812,4.052-4.052,4.052h-3.291
			c-2.23,0-4.052-1.812-4.052-4.052v-15.449c0-2.23,1.823-4.052,4.052-4.052h3.291c2.241,0,4.052,1.823,4.052,4.052V337.713z
			 M187.355,392.689H176.27c-5.929,0-10.721,4.803-10.721,10.721v38.509c0,5.414,4.031,9.981,9.413,10.635
			c11.825,1.458,20.916,11.042,21.935,22.739h-39.163c-0.901-19.265-13.605-35.754-31.39-41.854v-34.799h0.375
			c18.365,0,35.882-7.29,48.801-20.187h45.842C212.57,387.404,200.413,392.689,187.355,392.689z M405.404,475.292h-38.08
			c-0.911-19.887-14.066-36.525-32.494-42.25v-54.59h5.371c11.278,0,22.363-2.058,32.752-6.004v69.342
			c0,5.543,4.224,10.174,9.745,10.678C394.962,453.583,404.385,463.221,405.404,475.292z M377.937,346.108
			c-11.257,7.14-24.304,10.903-37.737,10.903h-16.092c-5.918,0-10.721,4.803-10.721,10.721v74.059
			c0,5.543,4.224,10.174,9.745,10.678c12.264,1.115,21.677,10.742,22.706,22.803h-51.513c-10.506,0-19.061-8.544-19.061-19.051
			v-88.489c0-5.918-4.803-10.721-10.721-10.721h-93.678c-3.109,0-6.068,1.351-8.105,3.709c-9.08,10.474-22.213,16.478-36.043,16.478
			h-11.096c-5.918,0-10.721,4.803-10.721,10.721v53.99c0,5.414,4.042,9.981,9.413,10.646c11.825,1.447,20.916,11.032,21.935,22.717
			H84.747c-10.506,0-19.061-8.544-19.061-19.051v-75.731c0-9.702,5.36-18.482,13.991-22.921c3.57-1.844,5.811-5.521,5.811-9.531
			v-61.419c0-33.513,27.263-60.776,60.765-60.776h61.73c6.282,12.007,13.894,23.639,22.792,34.767
			c27.831,34.767,67.476,63.767,114.658,83.857c1.201,0.515,2.487,0.772,3.774,0.772c1.286,0,2.573-0.257,3.784-0.772
			c18.054-7.687,35.003-16.692,50.623-26.813C397.91,329.158,389.108,339.053,377.937,346.108z M452.564,248.549
			c-25.097,31.369-60.776,57.763-103.358,76.524c-42.583-18.761-78.261-45.156-103.358-76.524
			c-26.255-32.805-40.138-70.274-40.138-108.354c0-2.787,0.075-5.618,0.225-8.405c3.516-66.801,76.739-97.226,143.272-97.226
			S488.961,64.989,492.478,131.8c0.15,2.777,0.225,5.596,0.225,8.394C492.703,178.275,478.819,215.744,452.564,248.549z"/>
	</g>
</g>
<g>
	<g>
		<path d="M459.361,112.75c-1.147-16.585-14.516-29.964-31.101-31.101c-9.402-0.654-18.365,2.519-25.237,8.93
			c-4.653,4.342-7.944,9.917-9.541,15.985H304.94c-1.608-6.068-4.899-11.643-9.552-15.985c-6.861-6.411-15.813-9.584-25.237-8.93
			c-16.585,1.136-29.954,14.516-31.101,31.101c-0.643,9.402,2.53,18.365,8.941,25.237c4.074,4.363,9.231,7.526,14.87,9.231v37.823
			c0,6.754,2.101,13.197,6.079,18.654l34.96,47.922c5.929,8.137,15.491,12.993,25.558,12.993h39.495
			c10.077,0,19.63-4.856,25.558-12.993l34.96-47.922c3.977-5.457,6.079-11.9,6.079-18.654v-37.823
			c5.639-1.705,10.796-4.867,14.88-9.231C456.842,131.114,460.015,122.152,459.361,112.75z M436.322,124.821
			c-2.723,2.916-6.422,4.524-10.421,4.524c-5.328,0-9.649,4.32-9.649,9.649v46.045c0,2.637-0.815,5.157-2.369,7.279l-34.96,47.922
			c-2.316,3.173-6.036,5.071-9.97,5.071h-10.099v-17.839c4.374-1.447,8.48-3.902,11.943-7.365c3.774-3.774,3.774-9.885,0-13.648
			c-3.763-3.774-9.874-3.774-13.648,0c-4.374,4.385-11.503,4.385-15.888,0c-3.774-3.774-9.874-3.774-13.648,0
			c-3.763,3.763-3.763,9.874,0,13.648c3.474,3.463,7.58,5.918,11.943,7.365v17.839h-10.099c-3.924,0-7.655-1.898-9.97-5.071
			l-34.96-47.922c-1.555-2.133-2.369-4.642-2.369-7.279v-46.045c0-5.328-4.32-9.649-9.649-9.649c-3.988,0-7.687-1.608-10.421-4.524
			c-2.712-2.916-4.063-6.733-3.784-10.753c0.482-7.022,6.143-12.683,13.176-13.165c0.343-0.032,5.907-0.45,10.742,3.784
			c4.085,3.581,4.524,10.86,4.513,11.085c-0.118,2.637,0.836,5.2,2.659,7.108c1.823,1.898,4.342,2.98,6.979,2.98h105.663
			c2.637,0,5.157-1.083,6.979-2.98c1.823-1.908,2.787-4.471,2.659-7.108c0-0.225,0.043-6.647,4.513-11.085
			c2.83-2.809,6.733-4.074,10.742-3.784c7.033,0.482,12.693,6.143,13.176,13.176C440.386,118.089,439.046,121.905,436.322,124.821z"
			/>
	</g>
</g>
<g>
	<g>
		<path d="M146.252,254.793c-17.543,0-31.817,14.277-31.817,31.828c0,5.92,4.801,10.721,10.721,10.721s10.721-4.801,10.721-10.721
			c0-5.727,4.655-10.386,10.375-10.386c5.92,0,10.721-4.801,10.721-10.721S152.172,254.793,146.252,254.793z"/>
	</g>
</g>
</svg>